<svg xmlns="http://www.w3.org/2000/svg" width="1400.8" height="1409.2" viewBox="0 0 1400.8 1409.2"><title>MCR_Seal-vector</title><g id="Outer_circle_vector" data-name="Outer circle vector"><circle cx="700.4" cy="700.4" r="678.4" fill="#231f20" stroke="#fff" stroke-miterlimit="10" stroke-width="44"/></g><g id="Side_dots" data-name="Side dots"><circle cx="168.2" cy="498.3" r="37.8" fill="#fff"/><circle cx="1236.3" cy="497.5" r="37.8" fill="#fff"/></g><g id="Center_symbol_vector" data-name="Center symbol vector"><polygon points="280.4 272.3 1117.4 272.3 1117.4 707.3 880.4 1143.3 518.4 1143.3 280.4 708.8 280.4 272.3" fill="none" stroke="#fff" stroke-miterlimit="10" stroke-width="44"/><circle cx="704.9" cy="812.3" r="205.5" fill="none" stroke="#fff" stroke-miterlimit="10" stroke-width="40"/><circle cx="704.9" cy="812.3" r="130.5" fill="#b04c2a"/></g><g id="MCR"><text transform="translate(320.4 545) scale(0.95 1)" font-size="290" fill="#fff" font-family="Avenir-Black, Avenir" letter-spacing="0.12em">M</text><text transform="translate(613.5 545)" font-size="290" fill="#fff" font-family="Avenir-Black, Avenir" letter-spacing="0.12em">C</text><text transform="translate(846.9 545) scale(1.2 1)" font-size="290" fill="#fff" font-family="Avenir-Black, Avenir" letter-spacing="0.1em">R</text></g><g id="MARTIAN"><text transform="translate(441.2 229.8) rotate(-27.5)" font-size="90" fill="#fff" font-family="Arimo, Arimo"> </text><text transform="matrix(1.12, -0.44, 0.36, 0.93, 462.7, 216.6)" font-size="90" fill="#fff" font-family="Arimo, Arimo">M</text><text transform="matrix(1.17, -0.26, 0.22, 0.98, 546.84, 184.46)" font-size="90" fill="#fff" font-family="Arimo, Arimo">A</text><text transform="translate(617.2 168.8) rotate(-5.1) scale(1.2 1)" font-size="90" fill="#fff" font-family="Arimo, Arimo">R</text><text transform="matrix(1.2, 0.06, -0.05, 1, 693.1, 162.51)" font-size="90" fill="#fff" font-family="Arimo, Arimo">T</text><text transform="translate(759 166.4) rotate(7.8) scale(1.2 1)" font-size="90" fill="#fff" font-family="Arimo, Arimo">I</text><text transform="matrix(1.17, 0.28, -0.23, 0.97, 788.91, 169.52)" font-size="90" fill="#fff" font-family="Arimo, Arimo">A</text><text transform="matrix(1.12, 0.44, -0.36, 0.93, 859.18, 185.96)" font-size="90" fill="#fff" font-family="Arimo, Arimo">N</text></g><g id="CONGRESSIONAL_REPUBLIC" data-name="CONGRESSIONAL REPUBLIC"><text transform="matrix(0.33, 1.11, -0.96, 0.29, 127.26, 854.95)" font-size="97.31" fill="#fff" font-family="Arimo, Arimo">C</text><text transform="matrix(0.5, 1.05, -0.91, 0.43, 150.42, 933.46)" font-size="97.31" fill="#fff" font-family="Arimo, Arimo">O</text><text transform="matrix(0.65, 0.96, -0.83, 0.56, 188.34, 1012.89)" font-size="97.31" fill="#fff" font-family="Arimo, Arimo">N</text><text transform="matrix(0.79, 0.85, -0.74, 0.68, 233.98, 1080.74)" font-size="97.31" fill="#fff" font-family="Arimo, Arimo">G</text><text transform="matrix(0.91, 0.73, -0.63, 0.78, 293.88, 1145.22)" font-size="97.31" fill="#fff" font-family="Arimo, Arimo">R</text><text transform="matrix(0.99, 0.6, -0.52, 0.86, 357.75, 1196.24)" font-size="97.31" fill="#fff" font-family="Arimo, Arimo">E</text><text transform="matrix(1.06, 0.47, -0.41, 0.91, 422.37, 1235.3)" font-size="97.31" fill="#fff" font-family="Arimo, Arimo">S</text><text transform="matrix(1.12, 0.33, -0.29, 0.96, 491.55, 1265.81)" font-size="97.31" fill="#fff" font-family="Arimo, Arimo">S</text><text transform="matrix(1.14, 0.23, -0.2, 0.98, 564.35, 1286.24)" font-size="97.31" fill="#fff" font-family="Arimo, Arimo">I</text><text transform="matrix(1.16, 0.11, -0.1, 0.99, 595.08, 1293.8)" font-size="97.31" fill="#fff" font-family="Arimo, Arimo">O</text><text transform="matrix(1.17, -0.05, 0.04, 1, 683.1, 1302)" font-size="97.31" fill="#fff" font-family="Arimo, Arimo">N</text><text transform="matrix(1.15, -0.21, 0.17, 0.98, 765.17, 1297.95)" font-size="97.31" fill="#fff" font-family="Arimo, Arimo">A</text><text transform="matrix(1.12, -0.34, 0.28, 0.96, 839.84, 1284.14)" font-size="97.31" fill="#fff" font-family="Arimo, Arimo">L</text><text transform="matrix(1.09, -0.42, 0.35, 0.93, 896.26, 1266.59)" font-size="97.31" fill="#fff" font-family="Arimo, Arimo"> </text><text transform="matrix(1.05, -0.52, 0.44, 0.89, 926.33, 1256.34)" font-size="97.31" fill="#fff" font-family="Arimo, Arimo">R</text><text transform="matrix(0.97, -0.66, 0.56, 0.82, 999.92, 1219.3)" font-size="97.31" fill="#fff" font-family="Arimo, Arimo">E</text><text transform="matrix(0.87, -0.78, 0.67, 0.74, 1062.75, 1176.34)" font-size="97.31" fill="#fff" font-family="Arimo, Arimo">P</text><text transform="matrix(0.75, -0.9, 0.76, 0.64, 1119.5, 1125.58)" font-size="97.31" fill="#fff" font-family="Arimo, Arimo">U</text><text transform="matrix(0.62, -0.99, 0.85, 0.53, 1172.36, 1062.42)" font-size="97.31" fill="#fff" font-family="Arimo, Arimo">B</text><text transform="matrix(0.49, -1.06, 0.91, 0.42, 1212.48, 997.89)" font-size="97.31" fill="#fff" font-family="Arimo, Arimo">L</text><text transform="matrix(0.4, -1.1, 0.94, 0.34, 1238.63, 940.31)" font-size="97.31" fill="#fff" font-family="Arimo, Arimo">I</text><text transform="matrix(0.29, -1.13, 0.97, 0.24, 1250.76, 910.97)" font-size="97.31" fill="#fff" font-family="Arimo, Arimo">C</text></g></svg>